<svg width="91" height="91" viewBox="0 0 91 91" fill="none" xmlns="http://www.w3.org/2000/svg">
<path d="M81.0469 36.9688C81.2722 36.9688 81.4943 36.9153 81.6948 36.8126C81.8954 36.7099 82.0687 36.5611 82.2004 36.3783C82.3322 36.1955 82.4186 35.9841 82.4526 35.7613C82.4865 35.5386 82.4671 35.311 82.3959 35.0972L78.1302 22.3004C78.0667 22.1099 77.9635 21.935 77.8275 21.7872C77.6916 21.6394 77.5258 21.5221 77.3413 21.443L67.3881 17.1773V17.1786C67.3828 17.1763 67.3782 17.1731 67.3729 17.1708C67.113 17.0631 66.8271 17.0349 66.5513 17.0898C66.2754 17.1447 66.0221 17.2801 65.8232 17.479L58.6027 24.6994L50.1259 3.73244C50.0204 3.47179 49.8401 3.24824 49.6076 3.09006C49.3752 2.93188 49.101 2.84617 48.8199 2.84377H48.8076C48.5285 2.8438 48.2555 2.92599 48.0228 3.0801C47.79 3.23421 47.6078 3.45342 47.4988 3.7104L38.8666 24.0589L18.0679 3.2602C17.8691 3.06134 17.6157 2.92591 17.3399 2.87104C17.0641 2.81618 16.7782 2.84433 16.5183 2.95196C16.2585 3.05958 16.0365 3.24183 15.8802 3.47567C15.724 3.7095 15.6406 3.98442 15.6406 4.26565V45.5C15.6406 45.8652 15.781 46.2163 16.0329 46.4808L31.1122 62.3137L14.5031 84.4594C14.3212 84.7018 14.2216 84.996 14.2187 85.2991C14.2158 85.6021 14.3098 85.8982 14.487 86.144C14.6642 86.3899 14.9153 86.5727 15.2037 86.6658C15.4922 86.7589 15.8028 86.7574 16.0903 86.6615L45.9497 76.7084V76.707C46.1591 76.6377 46.3495 76.5205 46.5058 76.3648L67.8339 55.0367C67.9661 54.9048 68.0709 54.7481 68.1423 54.5755C68.2137 54.403 68.2503 54.218 68.25 54.0313V34.4377L80.768 36.9412C80.8598 36.9595 80.9532 36.9688 81.0469 36.9688ZM65.4062 50.5985L51.0656 36.2578L65.4062 21.917V50.5985ZM44.3724 72.1138L19.7052 46.2131L47.518 38.1342L44.3724 72.1138ZM48.7762 7.9803L56.4187 26.8831L49.0547 34.2469L41.0357 26.2279L48.7762 7.9803ZM46.3097 35.5238L18.4844 43.6063V7.69823L46.3097 35.5238ZM33.1009 64.4021L42.926 74.7185L19.5092 82.5242L33.1009 64.4021ZM47.2787 71.5699L50.2506 39.4645L64.8174 54.0313L47.2787 71.5699ZM68.25 31.5374V20.6407L75.6343 23.8054L78.9224 33.6722L68.25 31.5374Z" fill="white"/>
</svg>
